<svg width="32" height="32" viewBox="0 0 32 32" fill="none" xmlns="http://www.w3.org/2000/svg">
<path d="M11 19L6.4 4.5C6.2 3.6 5.3 3 4.4 3H2" stroke="black" stroke-width="2.5" stroke-miterlimit="10" stroke-linejoin="round"/>
<path d="M26 23H8.40002C7.30002 23 6.40002 22.1 6.40002 21C6.40002 19.9 7.30002 19.2 8.40002 19L29 16V6H11" stroke="black" stroke-width="2.5" stroke-miterlimit="10" stroke-linejoin="round"/>
<path d="M11 29C11.5523 29 12 28.5523 12 28C12 27.4477 11.5523 27 11 27C10.4477 27 10 27.4477 10 28C10 28.5523 10.4477 29 11 29Z" stroke="black" stroke-width="2.5" stroke-miterlimit="10" stroke-linejoin="round"/>
<path d="M24 29C24.5523 29 25 28.5523 25 28C25 27.4477 24.5523 27 24 27C23.4477 27 23 27.4477 23 28C23 28.5523 23.4477 29 24 29Z" stroke="black" stroke-width="2.5" stroke-miterlimit="10" stroke-linejoin="round"/>
</svg>
