<svg width="38" height="45" viewBox="0 0 38 45" fill="none" xmlns="http://www.w3.org/2000/svg">
<path d="M20.4257 14.7742C20.2077 14.7742 20.0006 14.8693 19.8584 15.0347C19.4231 15.5412 9.198 27.5057 9.198 33.509C9.198 39.7073 14.2348 44.75 20.4257 44.75C26.6167 44.75 31.6534 39.7073 31.6534 33.509C31.6534 27.5057 21.4284 15.5412 20.993 15.0347C20.8509 14.8693 20.6437 14.7742 20.4257 14.7742ZM30.1564 33.509C30.1564 38.8809 25.7913 43.2512 20.4257 43.2512C15.0602 43.2512 10.695 38.8809 10.695 33.509C10.695 31.2952 12.4581 27.5858 15.7935 22.7815C17.6451 20.1145 19.5161 17.7903 20.4257 16.6895C21.3354 17.7903 23.2064 20.1145 25.0579 22.7815C28.3934 27.5858 30.1564 31.2952 30.1564 33.509Z" fill="#FF6700" stroke="#FF6700" stroke-width="0.1"/>
<path d="M19.5347 40.7653C19.5347 41.1923 19.8672 41.5385 20.2772 41.5385C24.7812 41.5385 28.4456 37.7231 28.4456 33.0334C28.4456 32.6064 28.1131 32.2603 27.703 32.2603C27.2929 32.2603 26.9604 32.6064 26.9604 33.0334C26.9604 36.8705 23.9624 39.9921 20.2772 39.9921C19.8672 39.9921 19.5347 40.3383 19.5347 40.7653Z" fill="#FF6700" stroke="#FF6700" stroke-width="0.1"/>
<path d="M6.34653 21.9112C9.29461 21.9112 11.6931 19.51 11.6931 16.5584C11.6931 15.3405 10.8498 13.5489 9.18655 11.2335C7.98057 9.55465 6.79437 8.22735 6.74445 8.17168C6.64307 8.05853 6.49831 7.9939 6.34653 7.9939C6.19476 7.9939 6.05 8.05853 5.94862 8.17168C5.8987 8.22735 4.7125 9.55465 3.50652 11.2335C1.84328 13.5489 1 15.3405 1 16.5584C1 19.51 3.39846 21.9112 6.34653 21.9112ZM6.3466 9.34227C7.82966 11.0777 10.6238 14.7253 10.6238 16.5584C10.6238 18.9197 8.70503 20.8407 6.34653 20.8407C3.98804 20.8407 2.06931 18.9197 2.06931 16.5584C2.06931 14.7268 4.86354 11.0782 6.3466 9.34227Z" fill="#FF6700" stroke="#FF6700" stroke-width="0.1"/>
<path d="M8.45444 18.3475C8.04031 18.9102 7.45784 19.2506 6.85701 19.2693C6.85161 19.2557 6.84656 19.2357 6.84656 19.2094C6.84656 19.1821 6.85198 19.1616 6.8576 19.1479C7.50478 19.1319 8.05609 18.8209 8.45444 18.3475Z" fill="#FF6700" stroke="#FF6700"/>
<path d="M31.4752 17.2722C34.5215 17.2722 36.9999 14.3783 36.9999 10.8213C36.9999 9.35361 36.1286 7.19452 34.4099 4.40413C33.1637 2.3809 31.938 0.781337 31.8864 0.714249C31.7816 0.577894 31.632 0.5 31.4752 0.5C31.3184 0.5 31.1688 0.577894 31.064 0.714249C31.0124 0.781337 29.7867 2.3809 28.5405 4.40413C26.8218 7.19452 25.9504 9.35361 25.9504 10.8213C25.9504 14.3783 28.4288 17.2722 31.4752 17.2722ZM31.4753 2.12497C33.0078 4.21633 35.895 8.61225 35.895 10.8213C35.895 13.667 33.9123 15.982 31.4752 15.982C29.0381 15.982 27.0554 13.667 27.0554 10.8213C27.0554 8.61402 29.9428 4.21697 31.4753 2.12497Z" fill="#FF6700" stroke="#FF6700" stroke-width="0.1"/>
<path d="M34.3614 10.7977C34.3614 11.7931 34.0497 12.6779 33.569 13.3035C33.0973 13.9176 32.4831 14.2616 31.8414 14.2738C31.8222 14.2478 31.797 14.1921 31.797 14.1114C31.797 14.03 31.8226 13.9741 31.8419 13.9484C32.5762 13.9359 33.2077 13.5416 33.6422 12.976C34.0836 12.4016 34.343 11.6296 34.343 10.7977C34.343 10.7671 34.3466 10.74 34.3522 10.7168C34.3577 10.74 34.3614 10.7671 34.3614 10.7977Z" fill="#FF6700" stroke="#FF6700"/>
</svg>
