<svg width="28" height="48" viewBox="0 0 28 48" fill="none" xmlns="http://www.w3.org/2000/svg">
<path fill-rule="evenodd" clip-rule="evenodd" d="M14.2303 46.5C10.2283 46.5 5.8317 42.6081 5.69079 36.3212L5.09894 19.284C5.09894 18.9846 5.38077 12.8066 15.2168 10.4116C15.3295 10.3844 19.9797 9.43184 22.7981 12.2895C24.2918 13.8136 24.9964 16.0997 24.8554 19.1207C24.8554 19.2296 24.7709 21.9784 22.2062 24.7C19.9515 27.1222 20.5152 33.8445 20.5434 33.899C21.3043 40.0498 19.8106 43.1524 18.4296 44.6493C17.3023 45.874 15.865 46.5 14.2303 46.5Z" stroke="#FF6700" stroke-width="1.5"/>
<path fill-rule="evenodd" clip-rule="evenodd" d="M23.75 9C22.0861 9 20.75 7.32019 20.75 5.23817C20.75 3.17981 22.0861 1.5 23.75 1.5C25.3887 1.5 26.75 3.17981 26.75 5.23817C26.75 7.32019 25.3887 9 23.75 9Z" stroke="#FF6700" stroke-width="1.5"/>
<path fill-rule="evenodd" clip-rule="evenodd" d="M16.3406 7.5C15.1664 7.5 14.1488 6.44231 14.0184 5.05557C13.8618 3.59831 14.7229 2.35259 15.9753 2.25857C17.2538 2.14105 18.3236 3.24575 18.4802 4.70301C18.5585 5.36112 18.4019 6.01924 18.0627 6.53633C17.6974 7.10043 17.1234 7.45299 16.5232 7.5C16.4711 7.5 16.3928 7.5 16.3406 7.5Z" stroke="#FF6700" stroke-width="1.5"/>
<path fill-rule="evenodd" clip-rule="evenodd" d="M10.9745 9C10.2006 9 9.45172 8.43429 9.02734 7.53429C8.77771 7.02 8.70282 6.42857 8.77771 5.91429C8.87756 5.32286 9.17712 4.86 9.62646 4.65429C9.82617 4.55143 10.0508 4.5 10.2755 4.5C11.0244 4.5 11.7983 5.06571 12.2227 5.96571C12.4723 6.50571 12.5472 7.09714 12.4723 7.61143C12.3724 8.17714 12.0479 8.64 11.5986 8.87143C11.4238 8.97429 11.1992 9 10.9745 9Z" stroke="#FF6700" stroke-width="1.5"/>
<path fill-rule="evenodd" clip-rule="evenodd" d="M6.17598 11.2982C5.54405 11.1705 4.93297 10.6792 4.597 9.99816C4.09542 8.9649 4.33968 7.88614 5.20274 7.52098C5.46356 7.40201 5.78117 7.39261 6.08449 7.4539C6.71643 7.58158 7.3275 8.0729 7.64296 8.72522C7.88587 9.21574 7.97236 9.69917 7.88191 10.1469C7.78193 10.6417 7.46399 11.0434 7.03246 11.226C6.7764 11.3214 6.47931 11.3594 6.17598 11.2982Z" stroke="#FF6700" stroke-width="1.5"/>
<path fill-rule="evenodd" clip-rule="evenodd" d="M3.10304 15C2.62392 15 2.12398 14.7383 1.74902 14.3356C1.12409 13.6309 1.08243 12.7248 1.64486 12.2617C1.85317 12.0805 2.12398 12 2.41561 12C2.89473 12 3.39467 12.2416 3.76963 12.6644C4.37373 13.349 4.41539 14.2752 3.85296 14.7383C3.66548 14.8993 3.39467 15 3.10304 15Z" stroke="#FF6700" stroke-width="1.5"/>
<path fill-rule="evenodd" clip-rule="evenodd" d="M16.9923 20.5087C15.1603 20.5087 13.6666 19.0662 13.6666 17.2972C13.6666 15.5281 15.1603 14.0857 16.9923 14.0857C18.8242 14.0857 20.3179 15.5281 20.3179 17.2972C20.3179 19.0662 18.8242 20.5087 16.9923 20.5087Z" stroke="#FF6700" stroke-width="1.5"/>
<path fill-rule="evenodd" clip-rule="evenodd" d="M11.375 30C9.92903 30 8.75 28.8259 8.75 27.3639C8.75 25.9241 9.92903 24.75 11.375 24.75C12.821 24.75 14 25.9241 14 27.3639C14 28.8259 12.821 30 11.375 30Z" stroke="#FF6700" stroke-width="1.5"/>
<path fill-rule="evenodd" clip-rule="evenodd" d="M14 41.25C12.3475 41.25 11 39.9025 11 38.25C11 36.5975 12.3475 35.25 14 35.25C15.6525 35.25 17 36.5975 17 38.25C17 39.9025 15.6525 41.25 14 41.25Z" stroke="#FF6700" stroke-width="1.5"/>
</svg>
