<svg width="55" height="64" viewBox="0 0 55 64" fill="none" xmlns="http://www.w3.org/2000/svg">
<g clip-path="url(#clip0_22_9)">
<path fill-rule="evenodd" clip-rule="evenodd" d="M12.6758 64C10.957 64 9.02344 63.8933 6.875 63.5733C6.76758 63.5733 4.29688 63.04 3.22266 61.0133C2.4707 59.6266 2.4707 57.92 3.22266 56C3.22266 55.7866 3.33008 55.68 3.54492 55.5733C3.65234 55.5733 13.1055 50.3466 15.5762 45.3333C15.8984 44.16 19.7656 30.2933 23.2031 25.8133C23.5254 24.1066 24.4922 10.4533 24.1699 8.74664C24.1699 8.53331 24.2773 8.31998 24.3848 8.21331C24.4922 7.99998 24.707 7.89331 24.9219 7.89331H44.5801C45.0098 7.89331 45.332 8.21331 45.332 8.63998C45.332 8.74664 45.332 8.95998 45.332 9.27998C45.332 11.2 45.332 21.76 45.332 22.2933C47.2656 23.2533 54.0332 26.9866 51.9922 33.1733C49.8438 40 44.1504 42.0266 43.7207 42.24C43.3984 42.3466 40.7129 43.4133 37.2754 46.08C33.8379 48.5333 28.8965 52.9066 24.8145 59.84C24.5996 60.16 22.2363 64 12.6758 64ZM7.08984 62.08C14.1797 63.04 18.3691 62.08 20.5176 61.2267C22.8809 60.2666 23.5254 59.0933 23.5254 59.0933C27.7148 51.9466 32.8711 47.36 36.416 44.8C40.1758 42.0266 43.0762 40.8533 43.1836 40.8533C43.1836 40.8533 44.5801 40.32 46.084 39.1466C48.2324 37.5466 49.7363 35.4133 50.4883 32.7466C52.3145 27.4133 45.9766 24.2133 44.5801 23.5733C43.8281 23.36 43.8281 22.5066 43.8281 21.2266C43.7207 20.3733 43.8281 10.1333 43.8281 9.38664H25.7812C25.7812 12.0533 24.5996 26.1333 24.5996 26.3466C24.5996 26.4533 24.4922 26.56 24.4922 26.56C21.1621 30.8266 16.9727 45.6533 16.9727 45.76C16.9727 45.76 16.9727 45.8666 16.8652 45.8666C14.6094 50.9866 6.12305 55.8933 4.51172 56.7466C3.97461 58.1333 3.97461 59.3066 4.51172 60.2666C5.26367 61.6533 6.875 62.08 7.08984 62.08Z" fill="#595959" stroke="#595959"/>
<path fill-rule="evenodd" clip-rule="evenodd" d="M45.1172 41.4933C44.9023 41.4933 44.6875 41.3866 44.5801 41.28C43.0762 39.4666 42.2168 37.0133 42.2168 34.4533C42.2168 30.2933 44.5801 26.56 48.3398 24.64C48.7695 24.4266 49.1992 24.64 49.3066 24.96C49.5215 25.3866 49.4141 25.8133 48.9844 25.92C45.7617 27.6266 43.7207 30.8266 43.7207 34.4533C43.7207 36.6933 44.4727 38.72 45.7617 40.32C45.9766 40.6399 45.9766 41.0666 45.6543 41.3866C45.4395 41.4933 45.332 41.4933 45.1172 41.4933Z" fill="#595959" stroke="#595959"/>
<path fill-rule="evenodd" clip-rule="evenodd" d="M21.5918 62.2934C21.377 62.2934 21.0547 62.1867 20.9473 61.8667C18.6914 57.1734 14.0723 54.0801 8.91602 53.7601C8.48633 53.7601 8.16406 53.4401 8.16406 53.0134C8.16406 52.5867 8.59375 52.2667 9.02344 52.2667C11.8164 52.4801 14.6094 53.4401 16.9727 55.0401C19.2285 56.6401 21.1621 58.7734 22.3438 61.2267C22.4512 61.6534 22.3438 62.0801 21.9141 62.2934C21.8066 62.2934 21.6992 62.2934 21.5918 62.2934Z" fill="#595959" stroke="#595959"/>
<path fill-rule="evenodd" clip-rule="evenodd" d="M44.5801 9.38667C44.1504 9.38667 43.8281 9.06667 43.8281 8.64V1.49333H25.6738V8.64C25.6738 9.06667 25.3516 9.38667 24.9219 9.38667C24.4922 9.38667 24.1699 9.06667 24.1699 8.64V0.746667C24.1699 0.32 24.4922 0 24.9219 0H44.5801C45.0098 0 45.332 0.32 45.332 0.746667V8.64C45.332 9.06667 45.0098 9.38667 44.5801 9.38667Z" fill="#595959" stroke="#595959"/>
</g>
<defs>
<clipPath id="clip0_22_9">
<rect width="55" height="64" fill="white"/>
</clipPath>
</defs>
</svg>
