<svg width="48" height="48" viewBox="0 0 48 48" fill="none" xmlns="http://www.w3.org/2000/svg">
<path fill-rule="evenodd" clip-rule="evenodd" d="M23.986 24.8295C21.877 24.8295 20.1617 23.1142 20.1617 20.9772C20.1617 18.8682 21.877 17.1529 23.986 17.1529C26.0949 17.1529 27.8383 18.8682 27.8383 20.9772C27.8383 23.1142 26.0949 24.8295 23.986 24.8295ZM18.3621 39.283C17.0404 27.8383 10.4042 32.2531 10.4042 21.4552C10.4042 13.9754 16.5062 7.87347 23.986 7.87347C31.4939 7.87347 37.5958 13.9754 37.5958 21.4552C37.5958 26.9666 35.7962 28.5975 33.9121 30.3128C32.1406 31.9438 30.2847 33.6028 29.638 39.283V41.9543C29.638 42.2917 29.3568 42.5729 29.0193 42.5729C29.0193 45.4411 29.3849 45.2724 27.1072 45.2724V46.0035C27.1072 47.1002 26.2074 47.9719 25.1107 47.9719H22.8612C21.7645 47.9719 20.8928 47.1002 20.8928 46.0035V45.2724C18.6151 45.2724 18.9807 45.4411 18.9807 42.5729C18.6432 42.5729 18.3621 42.2917 18.3621 41.9543V39.283ZM19.5712 38.6081H28.4288C29.9473 27.3322 36.3023 31.3251 36.3023 21.4552C36.3023 14.6784 30.7909 9.13885 23.986 9.13885C17.2092 9.13885 11.6696 14.6784 11.6696 21.4552C11.6696 31.3251 18.0527 27.3322 19.5712 38.6081ZM27.7259 42.5729H20.2742V44.007H27.7259V42.5729ZM28.3445 41.3076V39.8735H19.6274V41.3076H28.3445ZM22.1582 45.2724C22.1582 46.9877 22.2707 46.7065 25.1107 46.7065C25.9262 46.7065 25.8418 45.8348 25.8418 45.2724H22.1582ZM23.986 5.42707C23.6485 5.42707 23.3673 5.14588 23.3673 4.78032V0.646756C23.3673 -0.16871 24.6327 -0.16871 24.6327 0.646756V4.78032C24.6327 5.14588 24.3515 5.42707 23.986 5.42707ZM33.5466 7.98595C33.0686 7.98595 32.7311 7.45168 32.9842 7.02988L35.065 3.43059C35.4587 2.7276 36.5835 3.37435 36.1617 4.07734L34.0809 7.67663C33.9684 7.87347 33.7715 7.98595 33.5466 7.98595ZM40.5202 14.9596C39.9016 14.9596 39.6485 14.116 40.2109 13.7786L43.7821 11.6977C44.5132 11.304 45.1599 12.4007 44.4288 12.8225L40.8577 14.8752C40.7452 14.9315 40.6327 14.9596 40.5202 14.9596ZM47.2408 24.5202H43.0791C42.2636 24.5202 42.2636 23.2267 43.0791 23.2267H47.2408C48.0563 23.2267 48.0563 24.5202 47.2408 24.5202ZM44.1195 36.1336C44.007 36.1336 43.8946 36.1055 43.7821 36.0492L40.2109 33.9684C39.5079 33.5747 40.1266 32.4499 40.8577 32.8717L44.4288 34.9526C44.9912 35.2619 44.7382 36.1336 44.1195 36.1336ZM14.4534 7.98595C14.2285 7.98595 14.0035 7.87347 13.8911 7.67663L11.8383 4.07734C11.4165 3.37435 12.5132 2.7276 12.935 3.43059L15.0158 7.02988C15.2408 7.45168 14.9315 7.98595 14.4534 7.98595ZM7.45169 14.9596C7.36733 14.9596 7.25485 14.9315 7.14237 14.8752L3.57119 12.8225C2.84009 12.4007 3.48684 11.304 4.18982 11.6977L7.78912 13.7786C8.35151 14.116 8.09843 14.9596 7.45169 14.9596ZM4.89281 24.5202H0.759243C-0.0562224 24.5202 -0.0562224 23.2267 0.759243 23.2267H4.89281C5.7364 23.2267 5.7364 24.5202 4.89281 24.5202ZM3.88051 36.1336C3.26188 36.1336 2.98068 35.2619 3.54307 34.9526L7.14237 32.8717C7.84536 32.4499 8.49211 33.5747 7.78912 33.9684L4.18982 36.0492C4.10546 36.1055 3.99299 36.1336 3.88051 36.1336ZM25.4763 29.4692H22.4956C22.1863 29.4692 21.9051 29.2162 21.877 28.8787L21.7364 27.1072C21.0615 26.826 20.4148 26.4605 19.8524 26.0105L18.2215 26.7698C17.9121 26.9104 17.5466 26.7979 17.3779 26.5167L15.8875 23.9578C15.7469 23.6485 15.8313 23.283 16.0844 23.1142L17.5747 22.0738C17.4622 21.3708 17.4622 20.6116 17.5747 19.9086L16.0844 18.8682C15.8313 18.6995 15.7469 18.3339 15.8875 18.0246L17.3779 15.4657C17.5466 15.1564 17.9121 15.0721 18.2215 15.2127L19.8524 15.9719C20.4148 15.522 21.0615 15.1283 21.7364 14.8752L21.877 13.1037C21.9051 12.7663 22.1863 12.5132 22.4956 12.5132H25.4763C25.8137 12.5132 26.0949 12.7663 26.123 13.1037L26.2636 14.8752C26.9385 15.1283 27.5853 15.522 28.1476 15.9719L29.7786 15.2127C30.0879 15.0439 30.4253 15.1564 30.594 15.4657L32.0844 18.0246C32.2531 18.3339 32.1687 18.6995 31.8875 18.8682L30.4253 19.9086C30.5378 20.6116 30.5378 21.3708 30.4253 22.0738L31.8875 23.1142C32.1687 23.283 32.2531 23.6485 32.0844 23.9578L30.594 26.5167C30.4253 26.7979 30.0598 26.9104 29.7786 26.7698L28.1476 26.0105C27.5853 26.4605 26.9385 26.8541 26.2636 27.1072L26.123 28.8787C26.0949 29.2162 25.8137 29.4692 25.4763 29.4692ZM23.1143 28.2039H24.8858L25.0264 26.5729C25.0826 25.7856 26.2074 26.0949 27.6134 24.7733C27.7821 24.6046 28.0914 24.5483 28.3164 24.6608L29.7786 25.3638L30.6784 23.8172C28.3726 22.2425 29.2162 23.0861 29.2162 20.9772C29.2162 18.8963 28.3726 19.7399 30.6784 18.1652L29.7786 16.6186L28.3164 17.3216C27.5853 17.6591 27.3041 16.5062 25.4763 15.9719C25.2232 15.8875 25.0264 15.6626 25.0264 15.4095L24.8858 13.7786H23.1143L22.9737 15.4095C22.9174 16.1968 21.7645 15.8875 20.3867 17.2091C20.1898 17.3779 19.9086 17.4341 19.6556 17.3216L18.1933 16.6186L17.2935 18.1652C19.6274 19.7399 18.7557 18.8963 18.7557 20.9772C18.7557 23.0861 19.6274 22.2425 17.2935 23.8172L18.1933 25.3638L19.6837 24.6608C20.3867 24.3234 20.696 25.4763 22.5237 26.0105C22.7768 26.0949 22.9455 26.3199 22.9737 26.5729L23.1143 28.2039ZM23.986 18.4464C22.58 18.4464 21.4552 19.5712 21.4552 20.9772C21.4552 22.4113 22.58 23.536 23.986 23.536C25.3919 23.536 26.5448 22.4113 26.5448 20.9772C26.5448 19.5712 25.3919 18.4464 23.986 18.4464Z" fill="#FF6700" stroke="#FF6700" stroke-width="0.2"/>
</svg>
