<svg width="42" height="42" viewBox="0 0 42 42" fill="none" xmlns="http://www.w3.org/2000/svg">
<path d="M21.0443 42C15.463 42 10.1103 39.7875 6.16374 35.8493C2.21717 31.911 0 26.5697 0 21.0001C0 15.4306 2.21717 10.0892 6.16374 6.15101C10.1103 2.21278 15.463 0.000297147 21.0443 0.000297147C24.3697 -0.0168996 27.6564 0.712532 30.6609 2.13458C33.6655 3.55663 36.3111 5.63488 38.4017 8.21544C43.0483 14.1962 42.5432 18.9002 40.523 21.3025C39.8619 22.1651 38.9183 22.7687 37.8569 23.0082C36.7954 23.2477 35.6834 23.1078 34.7147 22.6129C31.9369 21.1513 29.6641 21.9913 28.7213 23.5873C27.7785 25.1833 28.4519 27.9049 32.0884 29.9041C32.9705 30.4539 33.6465 31.2786 34.0117 32.2504C34.3769 33.2222 34.411 34.287 34.1087 35.28C33.2669 38.64 29.3947 42 21.0443 42ZM21.0443 1.68029C15.9095 1.68029 10.985 3.71576 7.35419 7.33894C3.72334 10.9621 1.68355 15.8762 1.68355 21.0001C1.68355 26.1241 3.72334 31.0382 7.35419 34.6614C10.985 38.2845 15.9095 40.32 21.0443 40.32C28.4351 40.32 31.8022 37.5312 32.4925 34.9272C32.7107 34.273 32.6996 33.5641 32.461 32.917C32.2224 32.2698 31.7704 31.7228 31.1793 31.3657C26.6506 28.8121 25.9603 25.1329 27.2398 22.7809C28.5193 20.429 31.7517 19.1522 35.4892 21.1009C36.1242 21.4045 36.8456 21.4767 37.5284 21.3048C38.2111 21.133 38.8119 20.728 39.2267 20.1602C40.7587 18.4802 41.1122 14.4314 36.9875 9.24023C35.0509 6.8875 32.6179 4.99012 29.8621 3.68336C27.1063 2.3766 24.0955 1.69266 21.0443 1.68029ZM19.3608 36.96C18.5263 36.97 17.7076 36.7322 17.0089 36.2768C16.3101 35.8215 15.7628 35.1691 15.4365 34.4026C15.1102 33.636 15.0196 32.79 15.1762 31.972C15.3329 31.154 15.7297 30.4009 16.3163 29.8085C16.9028 29.2161 17.6526 28.811 18.4704 28.6449C19.2882 28.4787 20.1371 28.5589 20.9091 28.8752C21.6811 29.1916 22.3414 29.7298 22.8062 30.4215C23.2709 31.1133 23.5191 31.9273 23.5192 32.7601C23.5192 33.874 23.0757 34.9422 22.2864 35.7299C21.4971 36.5175 20.4265 36.96 19.3103 36.96H19.3608ZM19.3608 30.2401C18.8593 30.2301 18.3662 30.3693 17.9443 30.6401C17.5224 30.9108 17.1909 31.3008 16.992 31.7603C16.7931 32.2198 16.7358 32.728 16.8275 33.2201C16.9192 33.7122 17.1556 34.1659 17.5067 34.5234C17.8577 34.8809 18.3076 35.1259 18.7987 35.2273C19.2899 35.3287 19.8003 35.2818 20.2647 35.0927C20.729 34.9035 21.1265 34.5806 21.4063 34.1652C21.686 33.7498 21.8355 33.2606 21.8356 32.7601C21.8356 32.0917 21.5695 31.4508 21.096 30.9782C20.6224 30.5056 19.98 30.2401 19.3103 30.2401H19.3608ZM10.9431 28.5601C10.1085 28.5701 9.28989 28.3323 8.59114 27.8769C7.89238 27.4215 7.34506 26.7691 7.01875 26.0026C6.69243 25.2361 6.60184 24.3901 6.75849 23.5721C6.91514 22.7541 7.31196 22.001 7.89852 21.4086C8.48508 20.8161 9.2349 20.4111 10.0527 20.2449C10.8705 20.0787 11.7193 20.1589 12.4913 20.4753C13.2633 20.7916 13.9237 21.3299 14.3884 22.0216C14.8532 22.7133 15.1014 23.5273 15.1014 24.3601C15.1014 25.474 14.658 26.5423 13.8687 27.33C13.0794 28.1176 12.0088 28.5601 10.8926 28.5601H10.9431ZM10.9431 21.8401C10.4416 21.8301 9.94845 21.9694 9.52657 22.2401C9.10469 22.5109 8.77317 22.9008 8.57427 23.3603C8.37536 23.8198 8.31809 24.328 8.40975 24.8201C8.50141 25.3122 8.73786 25.7659 9.08893 26.1234C9.44001 26.4809 9.88982 26.726 10.381 26.8274C10.8722 26.9287 11.3825 26.8819 11.8469 26.6927C12.3113 26.5036 12.7087 26.1807 12.9885 25.7652C13.2683 25.3498 13.4178 24.8607 13.4179 24.3601C13.4179 23.6918 13.1518 23.0508 12.6782 22.5782C12.2046 22.1056 11.5623 21.8401 10.8926 21.8401H10.9431ZM14.3102 16.8002C13.4756 16.8102 12.657 16.5724 11.9582 16.117C11.2595 15.6616 10.7122 15.0092 10.3858 14.2427C10.0595 13.4762 9.96893 12.6302 10.1256 11.8122C10.2822 10.9942 10.6791 10.2411 11.2656 9.64866C11.8522 9.05623 12.602 8.65119 13.4198 8.48501C14.2376 8.31882 15.0864 8.399 15.8584 8.71535C16.6304 9.0317 17.2908 9.56994 17.7555 10.2617C18.2203 10.9534 18.4685 11.7674 18.4685 12.6002C18.4685 13.7141 18.0251 14.7824 17.2358 15.57C16.4464 16.3577 15.3759 16.8002 14.2596 16.8002H14.3102ZM14.3102 10.0802C13.8087 10.0702 13.3155 10.2095 12.8937 10.4802C12.4718 10.7509 12.1403 11.1409 11.9414 11.6004C11.7425 12.0599 11.6852 12.5681 11.7768 13.0602C11.8685 13.5523 12.105 14.006 12.456 14.3635C12.8071 14.721 13.2569 14.9661 13.7481 15.0674C14.2393 15.1688 14.7496 15.122 15.214 14.9328C15.6784 14.7436 16.0758 14.4208 16.3556 14.0053C16.6354 13.5899 16.7849 13.1007 16.785 12.6002C16.785 11.9319 16.5189 11.2909 16.0453 10.8183C15.5717 10.3457 14.9294 10.0802 14.2596 10.0802H14.3102ZM26.095 15.1202C25.2605 15.1302 24.4418 14.8924 23.7431 14.437C23.0443 13.9816 22.497 13.3292 22.1707 12.5627C21.8444 11.7962 21.7538 10.9502 21.9104 10.1322C22.0671 9.31417 22.4639 8.5611 23.0504 7.96868C23.637 7.37625 24.3868 6.9712 25.2046 6.80502C26.0224 6.63884 26.8712 6.71901 27.6433 7.03536C28.4153 7.35172 29.0756 7.88996 29.5404 8.58169C30.0051 9.27342 30.2533 10.0874 30.2533 10.9202C30.2533 12.0341 29.8099 13.1024 29.0206 13.89C28.2313 14.6777 27.1607 15.1202 26.0445 15.1202H26.095ZM26.095 8.40024C25.5935 8.39023 25.1004 8.52947 24.6785 8.80021C24.2566 9.07096 23.9251 9.46094 23.7262 9.92043C23.5273 10.3799 23.47 10.8881 23.5617 11.3802C23.6533 11.8723 23.8898 12.326 24.2409 12.6835C24.5919 13.041 25.0417 13.2861 25.5329 13.3875C26.0241 13.4888 26.5345 13.442 26.9988 13.2528C27.4632 13.0637 27.8607 12.7408 28.1404 12.3253C28.4202 11.9099 28.5697 11.4207 28.5698 10.9202C28.5698 10.2519 28.3037 9.61091 27.8301 9.13832C27.3566 8.66573 26.7142 8.40024 26.0445 8.40024H26.095Z" fill="#FF6700"/>
</svg>
