<svg width="29" height="68" viewBox="0 0 29 68" fill="none" xmlns="http://www.w3.org/2000/svg">
<path d="M26.3207 14.7485L27 4.18533C17.7609 0.227486 6.4837 2.53623 2 4.18533L2.67935 14.7485M26.3207 14.7485C21.9728 13.7234 7.57065 13.5451 2.67935 14.7485M26.3207 14.7485C26.1848 19.3392 25.6957 30.2857 24.8261 37.3457C23.7391 46.1706 21.837 54.7281 22.1087 55.7978M2.67935 14.7485C2.67935 19.4551 3.67572 31.7744 4.17391 37.3457C4.85326 43.1398 7.43478 54.4607 6.75543 55.7978M22.1087 55.7978C22.3804 56.8675 6.07609 57.1349 6.75543 55.7978M22.1087 55.7978C22.5163 56.1989 23.087 57.2151 22.1087 58.0709C21.1304 58.9266 21.7011 63.241 22.1087 65.2912C18.5761 65.8261 10.5598 66.5749 6.75543 65.2912C7.16304 63.4193 7.7337 59.3545 6.75543 58.0709C5.77717 56.7872 6.34783 56.0206 6.75543 55.7978" stroke="#FF6700" stroke-width="2.3"/>
</svg>
