<svg width="16" height="13" viewBox="0 0 16 13" fill="none" xmlns="http://www.w3.org/2000/svg">
<path fill-rule="evenodd" clip-rule="evenodd" d="M5.032 12.9998C11.0696 12.9998 14.372 7.99773 14.372 3.66045C14.372 3.51806 14.372 3.37674 14.3624 3.23595C15.0048 2.77198 15.5592 2.19591 16 1.53676C15.4016 1.80234 14.7656 1.97651 14.1152 2.0533C14.8 1.64293 15.3128 0.998217 15.5584 0.237474C14.9136 0.619844 14.2088 0.889706 13.4736 1.0345C12.2304 -0.287006 10.1512 -0.351033 8.8288 0.892076C7.9768 1.69362 7.6144 2.8887 7.8792 4.02861C5.24 3.89582 2.7808 2.64954 1.1136 0.59929C0.2424 2.09917 0.688 4.01723 2.1304 4.98036C1.608 4.96516 1.0968 4.82452 0.64 4.57015V4.6118C0.6408 6.17409 1.7424 7.5193 3.2736 7.82887C2.7904 7.96086 2.2832 7.98001 1.792 7.88481C2.2216 9.22232 3.4544 10.1384 4.8584 10.1648C3.696 11.0783 2.26 11.5744 0.7816 11.5728C0.5208 11.572 0.26 11.5568 0 11.5256C1.5016 12.4887 3.248 12.9999 5.032 12.9975" fill="#9C9C9C"/>
</svg>
