<svg width="28" height="28" viewBox="0 0 28 28" fill="none" xmlns="http://www.w3.org/2000/svg">
<path d="M7.67064 22.6585L8.63598 23.2225C10.2639 24.1719 12.1154 24.6704 14 24.6665C16.1096 24.6665 18.1719 24.0409 19.9261 22.8688C21.6802 21.6968 23.0474 20.0309 23.8547 18.0818C24.662 16.1327 24.8733 13.988 24.4617 11.9189C24.0501 9.84974 23.0342 7.94913 21.5424 6.45737C20.0507 4.96561 18.1501 3.9497 16.0809 3.53813C14.0118 3.12655 11.8671 3.33779 9.91802 4.14512C7.96894 4.95246 6.30304 6.31963 5.13097 8.07375C3.9589 9.82788 3.33331 11.8902 3.33331 13.9998C3.33331 15.9145 3.83598 17.7505 4.77864 19.3652L5.34131 20.3305L4.47064 23.5318L7.67064 22.6585ZM0.671977 27.3332L2.47464 20.7092C1.28683 18.673 0.662772 16.3572 0.666644 13.9998C0.666644 6.63584 6.63598 0.666504 14 0.666504C21.364 0.666504 27.3333 6.63584 27.3333 13.9998C27.3333 21.3638 21.364 27.3332 14 27.3332C11.6437 27.337 9.32885 26.7134 7.29331 25.5265L0.671977 27.3332ZM9.18798 7.74384C9.36664 7.7305 9.54664 7.7305 9.72531 7.7385C9.79731 7.74384 9.86931 7.75184 9.94131 7.75984C10.1533 7.78384 10.3866 7.91317 10.4653 8.09184C10.8626 8.99317 11.2493 9.90117 11.6226 10.8118C11.7053 11.0145 11.656 11.2745 11.4986 11.5278C11.3904 11.6991 11.2734 11.8647 11.148 12.0238C10.9973 12.2172 10.6733 12.5718 10.6733 12.5718C10.6733 12.5718 10.5413 12.7292 10.592 12.9252C10.6106 12.9998 10.672 13.1078 10.728 13.1985L10.8066 13.3252C11.148 13.8945 11.6066 14.4718 12.1666 15.0158C12.3266 15.1705 12.4826 15.3292 12.6506 15.4772C13.2746 16.0278 13.9813 16.4772 14.744 16.8105L14.7506 16.8132C14.864 16.8625 14.9213 16.8892 15.0866 16.9598C15.1693 16.9945 15.2546 17.0252 15.3413 17.0478C15.4309 17.0706 15.5252 17.0664 15.6123 17.0355C15.6994 17.0046 15.7754 16.9486 15.8306 16.8745C16.796 15.7052 16.884 15.6292 16.892 15.6292V15.6318C16.959 15.5693 17.0387 15.5218 17.1256 15.4926C17.2126 15.4634 17.3048 15.4531 17.396 15.4625C17.476 15.4678 17.5573 15.4825 17.632 15.5158C18.34 15.8398 19.4986 16.3452 19.4986 16.3452L20.2746 16.6932C20.4053 16.7558 20.524 16.9038 20.528 17.0465C20.5333 17.1358 20.5413 17.2798 20.5106 17.5438C20.468 17.8892 20.364 18.3038 20.26 18.5212C20.1888 18.6695 20.0942 18.8054 19.98 18.9238C19.8454 19.0651 19.6981 19.1936 19.54 19.3078C19.4853 19.349 19.4297 19.389 19.3733 19.4278C19.2075 19.5331 19.0371 19.6309 18.8626 19.7212C18.5194 19.9035 18.1402 20.0082 17.752 20.0278C17.5053 20.0412 17.2586 20.0598 17.0106 20.0465C17 20.0465 16.2533 19.9305 16.2533 19.9305C14.3576 19.4319 12.6045 18.4978 11.1333 17.2025C10.832 16.9372 10.5533 16.6518 10.268 16.3678C9.08131 15.1878 8.18531 13.9145 7.64131 12.7118C7.36287 12.1216 7.21247 11.479 7.19998 10.8265C7.19448 10.017 7.45911 9.22873 7.95198 8.5865C8.04931 8.46117 8.14131 8.3305 8.29998 8.17984C8.46931 8.01984 8.57598 7.9345 8.69198 7.87584C8.84621 7.79855 9.01446 7.7532 9.18664 7.7425L9.18798 7.74384Z" fill="#31363C"/>
</svg>
